<?xml version="1.0" encoding="UTF-8"?>
<svg version="1.1" viewBox="0 0 1600 840" width="150" height="100" xmlns="http://www.w3.org/2000/svg">
<path transform="translate(0)" d="m0 0h1600v840h-1600z" fill="#FCFCFC"/>
<path transform="translate(992,270)" d="m0 0 9 1 78 10 2 1 6 29 3 13 3 14 4 19 2 9 5 24 3 13 3 14 5 21 5 26 5 23 2 9 5 24v3h2l1-5 8-16 12-25 9-17 4-10 11-21 4-10 11-21 1-4h2l2-6 5-10 4-10 8-16 5-9 3-8 8-16 9-17 7 1 2 1-5-6-6-4 2-2 68 1 19 1 1-6 19 9 8 5 4 4 1 8-3 6-5 4-11 5-12 4-1 1-3 38-4 55-1 19v27l-36 1 2 67 2 54 1 44 2 46 125-4h20l-3-87-3-98v-27l-4 1-31 1-1-3 1-3 7-1h33l1 5 2 79 4 109v29l-1 1-113 4-42 1-1-1v-6l-14-1-13-1-11-2-29-4 2-38 7-103v-8l-5 8-4 10-4 9-19 38-11 23-6 12-11 23-5 9-3 7-1 2-15-1-72-9-10-49-7-33-2-10-3-11-3-16-3-12-3-17-3-14h-1l-7 40-12 62-9 47-1 4-15-1-58-7-5-1 4-16 6-23 10-38v-19l-17 5-14 2-9-1-1-1 1-27 2-19h-5l-1 9-5 21-8 16-5 5h-9l-16-4-9-4-9-6-10-9-1-4 10-16 23-34 1-1-8-3-12-8-9-9-2-4v-7l10-21 5-4 10-6 7-6h2l2-5 6-16 6-10 8-7 7-1 10 3 5 6 2 5v14l-5 10-3 2v2l6 4 8 11 8 14 12 13 3 2h9l2-1 7-39 3-16 9-47 3-16 5-26 3-16z" fill="#0752C5"/>
<path transform="translate(167,292)" d="m0 0h86l1 18-6 9-7 4-11 6h-2l1 13 3 7 10 6 5 1-1 15-4 31-1 11v20l3 8 9 5 5 1h11l5-3 10-8 3-2h4l2 4 46 6h8l2-4h12v-14l6-9h2l2-4 5-7 1-3h-3l-2 4-8 10-9 11-9 10-8-6-8-8-11-9-1-4 13-20 7-10 5 2 18 10v-101h87v163l33-18 3 1 1 5-3 4 3 7v8l-5 10-5 7 10 2 10 4 7 4-1-4-4-2-6-4-8-1-4-1 4-2 9 1 6 3 5 6 6 3v4l-10 6-25 13-7 4h-4v-7l4-6 2-11 2-6h-2l-4 10-1 8h-1v-13l4-6 1-2-18-7-1-2-1 195h-87v-142h-11l2 14-1 7-5 5-6 4-7 2h-10l-17-4-1-4 3-13v-12h-2l-9 21-4 5-7 2h-5l-1 7-2 5v5l5 2v2h-4l3 6v3l-14-3v-7l2-5v-16l-9-6-4-7v-7l2-6h-6v141h-86l-1-29-10-12-10-14-3-4-5 13-7 14-6 15-3 4-8 1-10-3v-9l8-39 5-22-1-1-7 4h-11l-16-8-4-1h-10l-2 2-1 10-4-1-1-2v-8l4-5 5-3h7l13 5 11 5 6 1 6-3 3-3h4l2-12 8-37 2-16 1-10 9-2h-14l-6-3-7-8-2-4-11-6-1-4h-9l-7-1v-37l54-1 2-6 5 1 8 7-4-5-6-8-3-6-1-5v-17l5 3h7l5-3 4-11v-9l-5-5h-11l-4 3h-3l1-6 5-4 3-1h15l5 2v-70z" fill="#0752C5"/>
<path transform="translate(562,293)" d="m0 0h101l21 4 22 6 11 5 20 10v2h3v2h3v2l4 1 10 8 12 11 10 12 6 9 8 16 3 7 3 9 4 15 1 7v16l-2 20-2 12-3 8-5 13-3 6h-2l-1 5-10 14-12 13-7 6 2 6 1 4h2l8 13v3h2l9 15v3h2l15 25 5 8-1 5-13 11 1 5 4 2 10 7-1 6-2 6v6l3 3 3 1 2-8 4-8 5 1 6 1h3l4 7 6 10-1 3h-28l-1 3-3-1v-2h-68l-9-14-16-26-9-14v-3h-2l-1-5h-2v-3h-2l-3-5v-3h-2l-6-10v-3h-2l-6-10-27 1 1 95h-40l-1 6-4 4-7 1-3-1 1-4 4-5-38-1v-25l-3 19-4 6-2 1-13-1-3-3-3-53v-70l3-30v-40l-7-1-7-8-4-8v-7l6-20 5-13 7-9 11-7 9-4 4 1 6 9 3-1 2-5 4 2 3 5 6-13-5-4-2 4h-11l-5-5-4-7-1-4v-8l3-6 5-5-1 4 2 1v2l1 3-4 3-3 1 2 5 3 3 7 1 7-3 4-6 2-10-4 1h-3l-2 7h-3l2-2v-6l-12-6-1-2-3 7-3 8h-3l-2-4v-12l3-7 1-1h7z" fill="#0752C5"/>
<path transform="translate(361,292)" d="m0 0h87v163l33-18 3 1 1 5-3 4 3 7v8l-5 10-5 7 10 2 10 4 7 4-1-4-4-2-6-4-8-1-4-1 4-2 9 1 6 3 5 6 6 3v4l-10 6-25 13-7 4h-4v-7l4-6 2-11 2-6h-2l-4 10-1 8h-1v-13l4-6 1-2-18-7-1-2-1 195h-87v-142h-12l-3-22-3-12-2-15-2-6-3-14-3-8-1-5h15l2-4h12v-14l6-9h2l2-4 5-7 1-3h-3l-2 4-8 10-9 11-9 10-8-6-8-8-11-9-1-4 13-20 7-10 5 2 18 10z" fill="#0853C6"/>
<path transform="translate(1586,563)" d="m0 0h1v94l-1 176h-259v-2l8-7 10-10 7-8 7-7h92v-2h-89l6-8 23-23 7-8 13-13 7-8 18-18 7-8 14-14 1-2h2v-2l20-20 6-7h2l2-4 22-22 9-10 4-5 8-7 9-10 7-7h1l1 92 1-1 1-95 5-5 11-12 5-6 8-7z" fill="#195EA5"/>
<path transform="translate(1344,435)" d="m0 0h28v11l5 1 5 2 1 9 10 1 1 5h9v1h-7v5l35-1 5 155 1 33v24l-45 2-92 3h-8l-1-1-2-46-2-75-2-60v-30l3-1h33l1-4h1l1-8 8-1 1-9 5-3 4-1 1-11z" fill="#FAF9F9"/>
<path transform="translate(13,8)" d="m0 0h254v2l-8 7-11 12-10 10-2 1-88 1-1 2-24 1-11 3-12 4-2 2-5 2-11 8-10 9-8 12h-2l-1 5-5 10-4 14v32l4 14 8 16 6 9 8 9 6 4-1 4-16 17-14 14-2 3h-2v-89l-2-1v94l-8 7-7 8-21 21v-94l1-172z" fill="#1A6CB5"/>
<path transform="translate(1585,657)" d="m0 0h1v176h-259v-2l8-7 10-10 7-8 7-7h92v-2h-89l6-8 23-23 7-8 13-13 7-8 21-21h2l16-16 8-7h2l2-4 4-4h2l1-3 7-4h4l-2 11-2 9-6 12-8 10-9 11-7 10-9 11-9 9-4 6-8 6-7 8-4 4-2 5-9 3v2h51l15-16 11-12 17-17 7-8 22-22 7-8 7-7 4 1 3-1 1-3 2 6 3 2h-2l1 6-1 2h3l-1 8-1 17-1 16v16l4 7 2 8v9l-2 4-1 11-2 1 1 2-2 2-4-1 3 6v2l-13 2-46 3 96 1z" fill="#2078BD"/>
<path transform="translate(897,370)" d="m0 0 11 2 6 5 3 7v14l-5 10-3 2v2l6 4 8 11 8 14 12 13 3 2h9l14-3 9-6h2l1 2 1-2h7l1 1v5l-6 5-25 12-12 6-8 2 5 28 4 27 1 12-8 3-13 3-15 1-4-2 1-27 2-19h-5l-1 9-5 21-8 16-5 5h-9l-16-4-9-4-9-6-10-9-1-4 10-16 23-34 1-1-8-3-12-8-9-9-2-4v-7l10-21 5-4 10-6 7-6h2l2-5 6-16 6-10 8-7z" fill="#AA1A1D"/>
<path transform="translate(1513,352)" d="m0 0h6l11 5 5 4 1 2v15l-5 17-3 7-2 7v9l1 11v12l-3 8-3 3h-2v2l-3 1-1 6-4 9v18l5 17 3 13v7l-3 12-3 7v9l1 1 2 15 1 3v10l-6 1-1 57-3 6-16 16-2-1-1-25-4-31-2-12v-8h-4l-2-4-1-28-1-50v-20l-29-9-8-3v6h-1v-13h-18v-1l8-1-10-3-27-13v-3l11-9 6 2 31 15 10 4 9 4 20 7-3-15-2-6v-8l-1-1v-5l5-10 11-12 10-9 3-4 1-8-7-1v-4l4-4 1-3-4-1 1-5 9-9 2-7z" fill="#F8E2D6"/>
<path transform="translate(607,492)" d="m0 0h2l3 36 1 24 1 56 1 15v30l-2 10-12 2h-13l-1-1-2-32-3-18-3-42-2-34h-5v17l-5 45-4 35-4 26-4 6-2 1-13-1-3-3-3-53v-70l4-40 46-3 16-3z" fill="#181E46"/>
<path transform="translate(1586,563)" d="m0 0h1v94h-2v175h-111v-1l61-4 13-1-3-6v-2l5-1-1-3h3v-11l2-4v-9l-3-10-3-5v-16l2-27v-9l2-5h-3v-8l-3-3v-4l-4 4-4-3 8-7 2-2 1-94h1l1 92 1-1 1-95 5-5 11-12 5-6 8-7z" fill="#1A6CB4"/>
<path transform="translate(13,8)" d="m0 0h254v2l-8 7-11 12-10 10-2 1-88 1-1 2-24 1-11 3-12 4-2 2-5 2-11 8-5 2-7 3-2 3h-2l-2 5-4 3-3-1-2-5-1-3-2-2 2-3h2l-1-5-7-1-2-6-1-8-3 1 1-8-3-1v-8h2l-2-7 3-7 16-4 13-1h-45l-12 1v15l1 10 1 112 1 16 2 3 7-2 7-8 2 1-9 10-15 15-1-2 1-172z" fill="#1A75BC"/>
<path transform="translate(585,393)" d="m0 0 8 1 11 4 8 9 8 17 6 20 1 6v11l-3 6-6 4-7 2v5l1 4-5 11-7 3-16 3-28 2h-18l-1-4v-26l-7-1-7-8-4-8v-7l6-20 5-13 7-9 11-7 9-4 4 1 6 9 3-1 2-5 4 2 3 5z" fill="#7AA9D8"/>
<path transform="translate(287,434)" d="m0 0h4l2 4 38 5 2 2 3 11 1 1 3 14 2 6 3 20 3 14 4 29-1 7-5 5-6 4-7 2h-10l-17-4-1-4 3-13v-12h-2l-9 21-4 5-7 2h-5l-1 7-2 5v5l5 2v2h-4l3 6v3l-14-3v-7l2-5v-16l-9-6-4-7v-7l5-13 4-10 5-11 4-10 5-13 2-3 1-5h2l2-9h-11l-15-5-7-5 4-1h11l5-3 10-8z" fill="#A91A1D"/>
<path transform="translate(263,300)" d="m0 0h9l7 3 5 6 1 5v6l1 2v10l-3 6-1 5 10 3 3 4v12l-4 6-6 1 11 28 5 15v2l-9 2h8l5-1h8l6 3 7 7 11 9 8 5v2l3 1-1 3-16-1-38-5-2-2v-3l-7 3-11 9-4 2h-11l-9-3-6-4-3-8v-20l4-35 3-22-7-1-9-6-3-7v-13l19-10 6-9 5-8z" fill="#C5C7CB"/>
<path transform="translate(173,489)" d="m0 0h1v20l-3 16-6 16-9 18 1 7 9 20 6 8 6 11 5 3 5 8 1 8-6 11-4 4-1 3h-10l-4-6-11-14-7-10-3-4-5 13-7 14-6 15-3 4-8 1-10-3v-9l8-39 5-22-1-1-7 4h-11l-16-8-4-1h-10l-2 2-1 10-4-1-1-2v-8l4-5 5-3h7l13 5 11 5 6 1 6-3 3-3h4l2-12 8-37 2-16 1-10 22-4z" fill="#AA1A1D"/>
<path transform="translate(1121,177)" d="m0 0 6 2 19 10 28 15 19 10 1 2-13 25-12 22-12 23-4 1-27-14-19-10-23-13-1-3 13-24 14-26 6-11z" fill="#FCFBFA"/>
<path transform="translate(1268,144)" d="m0 0 12 1 9 3 5 4 5 9v7l4 2 6 10 5 12 5 23 1 7v13l-2 5-7 3h-13l1 4 2 2v4l-19 1-6 28-2 7h-27v4h-10l-1-3-1-15v-33l2-20 4-15 6-10 8-6 8 1 14 7 4 5 6 10 4 4 7-1 2-3-1-9-7-22-2-9 2-4-9-5-7-7-4 2-5 4-4 1 1 8-1 2-4-2-2-4-1-10 4-8 5-5z" fill="#FEB823"/>
<path transform="translate(1329,288)" d="m0 0 19 9 8 5 4 4 1 8-3 6-5 4-11 5-15 5-15 49-12 36 1 6 8 7 9 4v2l-5 2h-9l-23-11-2-1 2-9 8-30 6-24 6-20h-9l-9 3-1 9 3 8 1 4-1 2-5-1-7-8-6-15-2-6 1-5 12-9h2l1-5-21-13-12-8-9-7 2-2 68 1 19 1z" fill="#191E45"/>
<path transform="translate(892,240)" d="m0 0h39l1 3v51l-1 7h-2l-2 6-7 2h-62l-8-3-10-4v-50h14v-11z" fill="#FBF2EF"/>
<path transform="translate(649,380)" d="m0 0h9l14 3 15 6 2 1v2l5 2 9 7 7 8 6 11 1 7v10l-1 8-4 8-8 10-8 7-11 7-12 4-5 2-10 2h-9z" fill="#FBFBFC"/>
<path transform="translate(140,427)" d="m0 0 5 1 8 7 5 2 10 7 7 3 1 6v26l-1 10-11 4-19 5-6-1h-12l-6-3-7-8-2-4-11-6-1-4h-9l-7-1v-37l54-1z" fill="#F6E2D7"/>
<path transform="translate(897,370)" d="m0 0 11 2 6 5 3 7v14l-5 10-4 3-3-1 5-10 1-5v-8l-4-5-6 8-5 4-4 1 5 10 3 3-1 9-9 16-6 16-2 19-11 8h-7l-9-5-9-7-7-7-2-4v-7l10-21 5-4 10-6 7-6h2l2-5 6-16 6-10 8-7z" fill="#032039"/>
<path transform="translate(1403,464)" d="m0 0h33l1 5 2 79 4 109v29l-1 1-113 4-42 1-1-1-3-82-3-102v-38l13-1 27-1 1 1v5l-36 1 2 67 2 54 1 44 2 46 125-4h20l-3-87-3-98v-27l-4 1-31 1-1-3 1-3z" fill="#191E46"/>
<path transform="translate(129,72)" d="m0 0 9 1 7 4h7l3 3v9l5 12 2 6v4l8 1 19 6 8 2 1 3-16 5 2 8-1 1-11 1-7 6-6 3-16 2-1 2 14 1 4 2v1l-44 1 1-2h5l-4-7 1-5 15 1 11-2 8-5 5-7 1-7-1-1-18-2h-27l-9 2-5 7-4-2v-7l4-5 4-15 5-10-1-8 4-4h7l8-4z" fill="#EFEDEE"/>
<path transform="translate(1483,678)" d="m0 0h4l-2 11-2 9-6 12-8 10-9 11-7 10-9 11-9 9-4 6-8 6-7 8-4 4-2 5-9 3v2l-5 1h-16l4-2 7-5 5-8 2-3v-2h-2l-2 4-10 7-6-1-5 1 6-9 12-12 7-8 13-13 7-8 21-21h2l16-16 8-7h2l2-4 4-4h2l1-3z" fill="#1A6CB5"/>
<path transform="translate(948,545)" d="m0 0h2l1 8v11l-10 38-10 37-1 2h-2l-1 11-19 1 5 10 5 5v2h-13l-4-2-4-8-4-6v-4l-15-2-1-3 14-13 11-14 12-21 8-17 4-14v-5l-3-3 2-4 4-2-1-2 16-4z" fill="#F7E3D7"/>
<path transform="translate(1586,563)" d="m0 0h1v94h-2v175h-52v-1l40-1 8-2 2-10v-154l-1-2-4 2-14 14-7 8-3 3v-94l6-5 14-16 8-7z" fill="#164C95"/>
<path transform="translate(852,549)" d="m0 0h9l12 4 6 1-4 2v3l-12 19-7 11-10 16-12 22-10 19 2 1-6 1-4-2h-3l-6 15-5-1-2-3 1-10 2-5v-3l-9-6-5-5v-4l13-11 12-12 8-10 9-11 11-16 9-14z" fill="#F8E3D7"/>
<path transform="translate(45,148)" d="m0 0h1v92l-7 6-7 8-21 21v-92l22-22 7-8z" fill="#164C95"/>
<path transform="translate(1513,352)" d="m0 0h6l11 5 5 4 1 2v15l-5 17-3 7-2 7v9l1 11v12l-3 8-5 4h-6l-2-1 1-9 7-21-1-6-5-6-6-3-2 9-4 8-5 3h-7l-8 3-7 5h-3l1-9 8-11 7-7 8-7 4-5 1-8-7-1v-4l4-4 1-3-4-1 1-5 9-9 2-7z" fill="#A56230"/>
<path transform="translate(1358,800)" d="m0 0h90l-29 29-1 3h-90l6-7 11-11 7-8z" fill="#1C75BC"/>
<path transform="translate(215,8)" d="m0 0h52v2l-8 7-11 12-10 10-2 1h-87l6-7 19-19 4-5z" fill="#195EA5"/>
<path transform="translate(1514,508)" d="m0 0h2l3 10v7l-3 12-3 7v9l2 19v8l-7 2-28 1-2-2-2-30v-40l8 2h16l12-4z" fill="#AA1C1D"/>
<path transform="translate(146,361)" d="m0 0h15l6 4 5 5 4 13 4 27 4 21v12l-3 5-5 1-13-7-11-9-8-9-4-8-1-5v-17l5 3h7l5-3 4-11v-9l-5-5h-11l-4 3h-3l1-6 5-4z" fill="#060D26"/>
<path transform="translate(1344,435)" d="m0 0h28v11l5 1 5 2 1 9 10 1 1 5h9v1h-7v6l-2 1-1 3-4 1-28 1h-36l-4-4 1-4h1l1-8 8-1 1-9 5-3 4-1 1-11z" fill="#CDC7C6"/>
<path transform="translate(263,300)" d="m0 0h9l7 3 5 6 1 5v6l1 2v10l-3 6-1 5 10 3 3 4v12l-3 5h-8l-5-12-4-10 1-9 4-10v-6l-5-4-11-6v9l5 8v12l-2 6-7 8-5 3h-13l-10-6-3-4-1-4v-13l19-10 6-9 5-8z" fill="#A56231"/>
<path transform="translate(481,437)" d="m0 0 3 1 1 5-3 4 3 7v8l-5 10-5 7 10 2 10 4 7 4-1-4-4-2-6-4-8-1-4-1 4-2 9 1 6 3 5 6 6 3v4l-10 6-25 13-7 4h-4v-7l4-6 2-11 2-6h-2l-4 10-1 8h-1v-13l4-6 1-2-18-7-4-6-6-3-2-2 1-5 16-8 23-12z" fill="#C61614"/>
<path transform="translate(572,538)" d="m0 0h5l1 4 5 72 3 18 2 32h16l-2 2h-39l-1-24-1-3 2-14 7-60z" fill="#0852C1"/>
<path transform="translate(1548,633)" d="m0 0h1v62l-9 9h-2l-2 4-10 10-7 8-17 17-8 9h-2v-6l1-1 2-9 7-14 10-15 7-12 6-16 7-17 6-9 3-8 5-5 1-6z" fill="#164C95"/>
<path transform="translate(1121,177)" d="m0 0 6 2 19 10 28 15 19 10 1 2-13 25-12 22-12 23-4 1-27-14-19-10-23-13-1-3 13-24 14-26 6-11zm3 8-12 22-13 25-7 13 1 3 33 17 22 12 5 2 12-22 13-25 7-13v-2l-29-15-22-12z" fill="#AC1D1D"/>
<path transform="translate(84,434)" d="m0 0h54v41h-10l-11-2-5-3-3-7 1-4 3-2v-8h-6l-1 2v6l2 2v4l-2 1-1 8-3 1-18-2z" fill="#192049"/>
<path transform="translate(1124,185)" d="m0 0 12 6 22 12 27 14-2 6-2 2-35-17-9-4-18 36-7 12-2 4-17-8-1-3 13-25 10-19z" fill="#FBF7F5"/>
<path transform="translate(101,110)" d="m0 0 17 1h26l18-1 27 8 8 2 1 3-16 5 2 8-1 1-11 1-7 6-6 3-16 2-1 2 14 1 4 2v1l-44 1 1-2h5l-4-7 1-5 15 1 11-2 8-5 5-7 1-7-1-1-18-2h-27l-9 2-5 7-4-2v-7l5-6z" fill="#1C74BA"/>
<path transform="translate(338,381)" d="m0 0 5 2 18 10 14 8-2 5-18 22-9 10-8-6-8-8-11-9-1-4 13-20z" fill="#181D44"/>
<path transform="translate(273,414)" d="m0 0h7l4 2h16l5-1h8l6 3 7 7 11 9 8 5v2l3 1-1 3-16-1-38-5-2-2v-3l-7 3h-3v-2h-16l-5-5-4-5-2-1 1-2 6-1z" fill="#EFC5B2"/>
<path transform="translate(1513,554)" d="m0 0h1l2 15 1 3v10l-6 1-1 57-3 6-9 9-5 1-3-32-7-38v-2l-3-1 28-2 7-1-2-17z" fill="#EAA288"/>
<path transform="translate(854,241)" d="m0 0h76l-2 5-2-1-45-1-23-1v61h67l1-7 1-23h1l1 24 1 3-3 6-7 2h-62l-8-3-10-4v-50h14z" fill="#AB2F24"/>
<path transform="translate(1371,800)" d="m0 0h77l-29 29-1 3h-51v-1l15-2 3-3 6-12 4-7v-3l-4-2-20-1z" fill="#185DA4"/>
<path transform="translate(228,8)" d="m0 0h39v2l-8 7-11 12-10 10-2 1h-21v-2h-6l-7-3 1-5 6-9 4-4 1-4 14-4z" fill="#2179BE"/>
<path transform="translate(1327,333)" d="m0 0 2 1-3 38-4 55-1 19h-1l-1-6-1-4-9-3-8-7-2-3 1-7 12-36 14-46z" fill="#0853C3"/>
<path transform="translate(51,146)" d="m0 0 2 3 4 13 9 17 12 14 6 4-1 4-16 17-15 15h-1z" fill="#1A5FA6"/>
<path transform="translate(1319,467)" d="m0 0 2 1v5l-36 1 2 67 2 54 1 86 1 7 5 2v1l-9 1-1-1-3-82-3-102v-38l13-1z" fill="#09102D"/>
<path transform="translate(264,310)" d="m0 0 4 1 10 6 3 3-1 9-4 10 1 9 7 18 7 1v1l-6 1v2h-2l-1 2h-5l-3-13-1-4 1 12 3 18v10l-4-4-2-4-8-2v3l-3 1-1 4h-2v3l-6 1-2-1 1-5 10-8 9-3-3-5v-13l-3-1-6 4-2 3-1 11-4 9h-2l-1 2 1-14 2-15 5-7 6-4 6-7 1-5v-12l-5-8z" fill="#CEC6C4"/>
<path transform="translate(153,43)" d="m0 0h80l-2 4-26 26-4-1-9-9-6-4v-2l-4-1-11-6-18-6z" fill="#2674B9"/>
<path transform="translate(573,338)" d="m0 0 6 2 5 4 1 3 2 1 1 3v9l-4 23-6 9h-11l-5-5-4-7-1-4v-8l3-6 5-5-1 4 2 1v2l1 3-4 3-3 1 2 5 3 3 7 1 7-3 4-6 2-10-4 1h-3l-2 7h-3l2-2v-6l-12-6-1-2-3 7-3 8h-3l-2-4v-12l3-7 1-1 7-1 3-3z" fill="#9E1E21"/>
<path transform="translate(13,8)" d="m0 0h202v1l-188 1-12 1v15l1 10 1 112 1 16 2 3 7-2 7-8 2 1-9 10-15 15-1-2 1-172z" fill="#3E7AB9"/>
<path transform="translate(1400,434)" d="m0 0 6 2 31 15 10 4 1 1-1 10-2 3-7 1-1 7h-1v-13h-18v-1l8-1-10-3-27-13v-3z" fill="#F0C6B2"/>
<path transform="translate(1188,226)" d="m0 0 8 2 11 6-2 5-15 29-10 19-9 18-5-1-29-15-22-12-17-9 1-4 6 2 44 22 19 10 11-23 12-23 8-15v-2l-11-5-2 1z" fill="#C6C7CB"/>
<path transform="translate(1132,183)" d="m0 0 6 2 29 15 22 12 5 3-8 16-13 25-10 19-3 5-6-3 8-16 15-29 7-13v-4l-23-11-13-8-14-7-4-5z" fill="#AB1D1D"/>
<path transform="translate(1268,144)" d="m0 0 12 1 9 3 5 4 5 9v7l-4 6-4 3v-4l1-3-9-5-7-7-4 2-5 4-4 1 1 8-1 2-4-2-2-4-1-10 4-8 5-5z" fill="#181D44"/>
<path transform="translate(1586,563)" d="m0 0h1v39h-1l-1-13-2 4-4 3-6 2-8 10-3 5-4 2-3-5v-13-3l5-4 14-16 8-7z" fill="#195EA5"/>
<path transform="translate(481,437)" d="m0 0 3 1 1 5-3 4 3 7v8l-5 10-4 5-1 5-3-2v-2l-11-6-2-3 14-8 3 1v8l-1 4 6-11v-9l-1-6-27 14-5 3 2 5 19 10-1 2-18-7-4-6-6-3-2-2 1-5 16-8 23-12z" fill="#C31715"/>
<path transform="translate(572,398)" d="m0 0 4 2 2 3 1 17 5 28 2 8v7l-6 8-5-2-6-5v-13l3-39-2-4-3-3 3-2z" fill="#A91C1E"/>
<path transform="translate(1274,157)" d="m0 0 4 2 8 7 7 4-2 6-2 4-7 8-7 5-5-1-7-4-1-5 1-6v-12l8-5z" fill="#E9A187"/>
<path transform="translate(1387,501)" d="m0 0h23v12l-10 1h-66v-3l49-1 8-1-57-1v-4l45-2z" fill="#C6C0C2"/>
<path transform="translate(1380,539)" d="m0 0h31v4l-55 1-13 1h68v5l-58 1-3 1-15 1v-13z" fill="#C8C3C4"/>
<path transform="translate(1381,621)" d="m0 0h31v2l-14 1-2 1-26 1-1 1h44v4l-59 2-7 1h-11v-12z" fill="#C7C4C7"/>
<path transform="translate(865,286)" d="m0 0h55v12h-55z" fill="#F2C6B4"/>
<path transform="translate(1291,177)" d="m0 0h1l4 16 5 16-1 7-4 3h-5l-7-8-6-10-8-5-10-4 2-2 5-1 5 3 4-1 8-6z" fill="#FCFAF8"/>
<path transform="translate(866,270)" d="m0 0h53v6l-26 2 26 1v5h-54v-5h19v-2h-18z" fill="#E2997C"/>
<path transform="translate(1403,464)" d="m0 0h33l1 5v87l-3-2-1-21-1-6-1-31v-27l-4 1-31 1-1-3 1-3z" fill="#080F2A"/>
<path transform="translate(320,420)" d="m0 0 8 6 10 9 7 4v2l3 1-1 3-16-1-24-3 2-2-13-2-3-2 1-4 12-3 7-2h6z" fill="#C6C6CA"/>
<path transform="translate(101,110)" d="m0 0 17 1h26l14-1 6 4 3 7-1 6-4 1v-2h-2l-2-5-18-2h-27l-9 2-5 7-4-2v-7l5-6z" fill="#181D45"/>
<path transform="translate(144,368)" d="m0 0h11l5 4 1 2v9l-4 11-6 4h-7l-4-3-1 13h-1v-34l4-5z" fill="#E6A186"/>
<path transform="translate(239,9)" d="m0 0h20v1l-17 1-9 3h-2v2l-2 2-3 5-3 7-2 3 4 3 12 2-1 2h-21v-2h-6l-7-3 1-5 6-9 4-4 1-4 9-3z" fill="#1A6CB5"/>
<path transform="translate(802,638)" d="m0 0 2 1-1 6-2 6v6l3 3 3 1 2-8 4-8 5 1 6 1h3l4 7 6 10-1 3h-28l-1 3-3-1-3-6-3-3v-9l2-8z" fill="#0C56C2"/>
<path transform="translate(897,370)" d="m0 0 11 2 6 5 3 7v14l-5 10-4 3-3-1 5-10 1-5v-8l-4-5-6 8-5 4-5 1-1 2 1-5 7-6 2-3h2l-1-4-2-2-6 1-6 7-10 18-3 2 1-7 5-12 6-9 7-6z" fill="#070E28"/>
<path transform="translate(1359,800)" d="m0 0h12l20 1 5 3-1 6-6 10-4 7 1 2-12 2-7 1h-16v-1l19-2v-7l3-4 3-6v-7l-2-2-15-2z" fill="#196BB4"/>
<path transform="translate(1135,196)" d="m0 0 5 2 19 10 14 8v2l7 2v2l3 1-2 2-35-17-9-4-18 36-7 12-2 4-5-2 8-16 15-29z" fill="#C5C7CB"/>
<path transform="translate(1301,531)" d="m0 0h23l1 4-1 4-1 15-5 1h-17l-1-22z" fill="#962224"/>
<path transform="translate(1302,614)" d="m0 0h25l-2 7v15l-1 1h-21l-1-3z" fill="#F9F0EC"/>
<path transform="translate(1312,494)" d="m0 0h7l5 1v4h-2v16l-1 2h-22v-22z" fill="#F6E6E1"/>
<path transform="translate(846,255)" d="m0 0h6l2 1v46h-7l-4-3v-42z" fill="#F9EEE9"/>
<path transform="translate(1302,572)" d="m0 0h25l-2 6-1 16-20 1-2-3z" fill="#F8EDE8"/>
<path transform="translate(113,439)" d="m0 0h16l3 1 1 10v3l-2-1 2 2 2 4-1 4v3l-2 2-3-2-2 4 2 2-11 1 1-6-1-3v-6l-1-3 1-4-1-2h2l-1-2-5-1v2h-6v-5l1-1 3-1z" fill="#16488F"/>
<path transform="translate(247,356)" d="m0 0h7l1 2-4 4-3 22v5l2-1 3-8 1-11 5-6 6-2 2 2v14l2 4-12 6-6 5-1 2-4-1v3l-2 1-2 3 1-14z" fill="#C4C6CB"/>
<path transform="translate(478,448)" d="m0 0h2l2 6v9l-7 12-2-1 2-4v-8l-5 2-10 5 4 4 9 5-2 4-16-8-7-5-1-4 14-8z" fill="#FAEFEA"/>
<path transform="translate(122,289)" d="m0 0 5 1 1 1-1 7-1 4 6 2-1 9-4 11v8l1 6-10-1 1-5v-11l-4-9-1-8 7-3-2-4v-6z" fill="#C61514"/>
<path transform="translate(561,352)" d="m0 0 2 1v2l9 3 4 3v6 1l2-8 7 1-1 10-4 6-4 3-6 1-6-2-5-6 1-3 6-3v-2l-2-1v-3-3l-4 5-3 6-2-1 4-10z" fill="#E99E84"/>
<path transform="translate(374,403)" d="m0 0h3l-1 4-7 10h-2l-2 5-3 4-1 14-12 1-2 1-3-3-7-4-15-13-6-5-3-1h-8l-5 1h-16v-1l19-3 13 1 7 3 16 15 7 5 11-12 8-10z" fill="#F2F4F6"/>
<path transform="translate(174,503)" d="m0 0h1l1 11-4 16-4 10-1 47-3-3-8-18-1-7 12-25 5-17z" fill="#F5F2F1"/>
<path transform="translate(907,381)" d="m0 0 4 4 1 2v8l-3 9-3 6 1 7 4 6-4 1-6-7-2-9-6-8-1-5 8-5z" fill="#EBA48A"/>
<path transform="translate(881,253)" d="m0 0h29l1 13h-6l-1-1v-6h-3v6h-11l-1-7h-2v-3h-2l1 10h-11v-2h-2v2h-4v-10h4l1 4h2l1-4h4z" fill="#B12D27"/>
<path transform="translate(218,45)" d="m0 0h8l-2 4-3 3h2l-1 4-17 17-4-1-3-3-1-7 3-7 6-4 4-1v4l3-4h2v-2z" fill="#1C75BB"/>
<path transform="translate(564,357)" d="m0 0 1 2-1 2 2 1v2l1 3-4 3-3 1 2 5 3 3 7 1 7-3 4-6h1v12l-6 9h-11l-5-5-4-7-1-4v-8l3-6z" fill="#A8201F"/>
<path transform="translate(51,146)" d="m0 0 2 3 4 13 9 17 12 14h-3l-8-7-4-2v-2h-2v-2l-3 1-1 5-2 9-3 2-1-3z" fill="#164C94"/>
<path transform="translate(885,255)" d="m0 0h2v3h2l1 7h11v-6h3l1 6 3 1v2l12 1v15h-1v-5h-27l-1-2 28-1v-6l-8 1-45-1v6h-1v-7h5l-1-4h4v-2h2v2h11l-1-3z" fill="#F5D3C3"/>
<path transform="translate(1396,776)" d="m0 0h2l1 3-5 6-4 6-6 4 68 1-1 3v-2h-89l6-8 8-8v3l-2 2 5-1 5 1 10-7z" fill="#3683C4"/>
<path transform="translate(1401,274)" d="m0 0 9 1 18 8 3 1h7l6-3 4-1v4l-8 6-5 1-13-4-10-5-3-1h-9l-5 5v5l-5-1v-8l5-5z" fill="#FBB531"/>
<path transform="translate(892,240)" d="m0 0h39l1 3v51l-1 7-5-4v-52l4-4h-38z" fill="#ECA890"/>
<path transform="translate(264,310)" d="m0 0 4 1 10 6 3 3-1 9-4 10-1 5h-4v-2l-3 1v-16l-5-8z" fill="#F7E0D4"/>
<path transform="translate(1475,510)" d="m0 0h1l1 41 2 30 1 3h3l3 12 6 36 1 10v14l4-1-6 7-2-1-1-25-4-31-2-12v-8h-4l-2-4-1-28z" fill="#F8E3D7"/>
<path transform="translate(119,142)" d="m0 0 15 1 9-1v7l-1 2 14 1 4 2v1l-44 1 1-2h5l-4-7z" fill="#151B41"/>
<path transform="translate(606,435)" d="m0 0h5l3 4-1 5-3 3-19 10-3 2-2 3-2-13 8-4 9-8z" fill="#EBA187"/>
<path transform="translate(527,431)" d="m0 0 8 1 15 7 6 3v6h-11l-16-4-4-5 1-6z" fill="#EBA187"/>
<path transform="translate(1501,364)" d="m0 0 1 2-1 2h4l6 14 1 4-11 10h-1v-8l-7-1v-4l4-4 1-3-4-1 1-5 5-5z" fill="#EBA288"/>
<path transform="translate(1110,263)" d="m0 0 7 1 4 1v-2l5 1 22 12 5 2 4-1 2 2-1 5-2 3-5-1-23-12-18-10z" fill="#C31715"/>
<path transform="translate(135,304)" d="m0 0 10 1 2 1v9l-4 8v10l1 4h-9v-13l-2-5 1-9z" fill="#C51715"/>
<path transform="translate(952,473)" d="m0 0h2l-5 28-3 15-2-4-5-29v-5z" fill="#F2EFEF"/>
<path transform="translate(103,304)" d="m0 0h8l2 10-1 6-1 2v14h-8v-13l-4-9v-8z" fill="#C51614"/>
<path transform="translate(40,221)" d="m0 0 3 4 2 7-1 7 2 1-6 5h-7v2l-7 6-2 3h-2l-1 4-2 3h-5l1-6 11-9 4-5 8-18z" fill="#1A5FA5"/>
<path transform="translate(271,552)" d="m0 0h15v1h-5l-1 7-2 5v5l5 2v2h-4l3 6v3l-14-3v-7l2-5z" fill="#F0C6B2"/>
<path transform="translate(258,428)" d="m0 0 7 6 16 1 1 3-10 9-3 1h-11l-4-2-5-4-3-3-1-7 2 3 2 4 5 2 5 3 3-1-2-3h2l-3-5-1-5z" fill="#CDC6C5"/>
<path transform="translate(1584,658)" d="m0 0h1v174h-52v-1l40-1 8-2 2-10v-154l-2-4z" fill="#185AA1"/>
<path transform="translate(107,448)" d="m0 0 6 1 1 2v6l-4 3 2 10 5 2 3 2-3 3-3 5-6-2-8-5v-3h4l1-8 3-1-2-5-1-1v-6z" fill="#EAA289"/>
<path transform="translate(1434,453)" d="m0 0h6l8 4-1 9-2 3-7 1-1 7h-1v-13h-18v-1h11l-3-4 1-4z" fill="#E8A48D"/>
<path transform="translate(854,247)" d="m0 0h1l1 5v35h-2v-31h-8l-2 1-1 43v3l-3-1v-50h14z" fill="#A56230"/>
<path transform="translate(480,446)" d="m0 0 4 4 1 4v8l-5 10-4 5-1 5-3-2v-2l-11-6-2-3 14-8 3 1v8l-1 4 6-11v-9l-2-7z" fill="#C21715"/>
<path transform="translate(1241,292)" d="m0 0 68 1 15 1v1l-14 1-3 3-2 1-6-3h-51v2l-5-2-4-4z" fill="#080F2A"/>
<path transform="translate(910,421)" d="m0 0h3l4 12v12l-3 15-2-3-4-16-2-12v-6h4z" fill="#191E46"/>
<path transform="translate(1312,494)" d="m0 0h7l5 1v4h-2v16l-1 2h-22v-22zm3 2-12 1-2 3v11l2 4h14l3-2v-6h-3l-5 4-4-6 2-1 1 3 5-1 3-6-1-4z" fill="#AA241F"/>
<path transform="translate(1302,572)" d="m0 0h25l-2 6-1 16-20 1-2-3zm17 1-14 1v17l1 1h14l3-4v-5l-4 2-6 4-1-8h2l1 4 3-1 4-7v-4z" fill="#AB2320"/>
<path transform="translate(562,659)" d="m0 0h1v7l39-1 5-1 3 1 39 1v-6h1v7h-40l-1 6-4 4-7 1-3-1 1-4 4-5-38-1z" fill="#80ACD8"/>
<path transform="translate(580,388)" d="m0 0 4 2 2 3-7 13-3-4-3-3-4 6-4-2-4-7 4-4 1-2 1 1h11z" fill="#F1CEBE"/>
<path transform="translate(1380,628)" d="m0 0h32v2l-2 1-56 2h-17v-2l5-1z" fill="#191E46"/>
<path transform="translate(1302,614)" d="m0 0h25l-2 7v15l-1 1h-21l-1-3zm3 2-1 2v12l2 5h13l4-4-1-5-4 1 1-6h2l1-5z" fill="#AA3023"/>
<path transform="translate(917,293)" d="m0 0h2v5h-53v-4z" fill="#AA1D1D"/>
<path transform="translate(866,287)" d="m0 0h53v4h-53z" fill="#AA1E1E"/>
<path transform="translate(866,280)" d="m0 0h53v4h-53z" fill="#AB1A1D"/>
<path transform="translate(1318,533)" d="m0 0h2l-1 6-5 6-3-2v-3h-2l2 5 1 5-2 2h-6l-1-3v-14l1-1z" fill="#F8EBE6"/>
<path transform="translate(1399,273)" d="m0 0h10l13 5 7 3 6 1 6-3 3-3h5l3 3-2 5-7 6-5 2-11-1-13-7 3-1 10 5 10 2 8-4 3-3v-2l-4 1-6 3h-7l-24-10-9 1-5 2 4-4z" fill="#F9E4D8"/>
<path transform="translate(1398,585)" d="m0 0h14v2l-5 1-31 2-25 1h-14l1-3z" fill="#191E46"/>
<path transform="translate(153,43)" d="m0 0 46 1v1h-7v2l-11 1 1 4h2v2h2l2 4-6-2-11-6-18-6z" fill="#1D62A8"/>
<path transform="translate(1378,546)" d="m0 0h32v3l-57 2-17 1v-2l13-2z" fill="#191E46"/>
<path transform="translate(144,368)" d="m0 0h11l5 4 1 2v9l-4 11-6 4h-7l-1-2 8-1 4-5 3-13h-5l-2 5-3 1v-8l5-2 1-1h-7l-3 1-3-1 1-3z" fill="#EDBEA9"/>
<path transform="translate(561,352)" d="m0 0 2 1v2l9 3 4 3v6l-3 3-8 3-2 2h-3l-1-4 7-4v-2l-2-1v-3-3l-4 5-3 6-2-1 4-10z" fill="#E9A288"/>
<path transform="translate(1143,201)" d="m0 0 5 1 25 14v2l7 2v2l3 1-2 2-35-17-6-3v-2h3z" fill="#C5C7CB"/>
<path transform="translate(978,447)" d="m0 0h2l1 2 1-2h7l1 1v5l-6 5-10 4-4-7 2-4z" fill="#E9A48A"/>
<path transform="translate(1411,578)" d="m0 0 1 3-63 3h-12v-3l16-1z" fill="#191E46"/>
<path transform="translate(457,455)" d="m0 0 6 1-4 3-11 6 2 5 19 10-1 2-18-7-4-6-6-3-2-2 1-5 2 1h3l5-1v-2z" fill="#A31B1F"/>
<path transform="translate(115,443)" d="m0 0 1 3 4-1-2 4 1 3-1 4 1 1v8l1 5v3l-4-1-4-2-3-7 1-4 3-2v-8l-4-2h4v-2h2z" fill="#191E46"/>
<path transform="translate(1381,621)" d="m0 0h31v2l-14 1-36 1h-25v-2l12-1z" fill="#191E46"/>
<path transform="translate(1380,539)" d="m0 0h31l-1 3-74 1v-2l5-1z" fill="#191E46"/>
<path transform="translate(869,409)" d="m0 0h2l-2 4-3 3-9 6h-2l-2 4-8 11-4 9v10l2 4-5-5-1-2v-7l10-21 5-4 10-6z" fill="#080F29"/>
<path transform="translate(1511,582)" d="m0 0 4 1-1 1-1 49-2 6 2 1-4 2 1-59z" fill="#F4D9CB"/>
<path transform="translate(1383,510)" d="m0 0h25v1l-13 1v1l-37 1h-24v-3z" fill="#191E46"/>
<path transform="translate(856,241)" d="m0 0h74l-2 5-2-1-45-1v-1l-25-1z" fill="#A56230"/>
<path transform="translate(553,667)" d="m0 0h2l1 3v7l-4 5-3 1h-8l1-6 4-7 1-2z" fill="#7CAAD9"/>
<path transform="translate(1379,502)" d="m0 0h24v1l-21 1 5 1v1l-26 1h-27v-3z" fill="#191E46"/>
<path transform="translate(246,393)" d="m0 0 2 1-1 4-1 17 2 1 2 3-4 1v11h-2l-3-5v-24l3-6h2z" fill="#CCC6C5"/>
<path transform="translate(804,640)" d="m0 0 9 4-3 9-3 8-5-1-2-3 1-10z" fill="#EAA188"/>
<path transform="translate(1095,249)" d="m0 0 6 2 21 11-1 3-12-1-13-7v-6z" fill="#AA1D1D"/>
<path transform="translate(1128,182)" d="m0 0h4v4l5 4 16 8 16 9 16 8v2l-6-2-23-12-22-12-10-5-5 9-1-2 4-8z" fill="#C31514"/>
<path transform="translate(1309,540)" d="m0 0h2l3 8 4-5 3-1 2 3v9l-5 1h-17l2-1v-5l1 3 7-2-1-5z" fill="#A65D2F"/>
<path transform="translate(866,270)" d="m0 0h53l-1 5h-19l-2-3-2 3-2-1-1-1-10-1h-14l-2 1z" fill="#A5602F"/>
<path transform="translate(881,253)" d="m0 0h29l1 13h-6l-1-1v-6l-4 1-1-3-5-1-3 3-2-4h-7z" fill="#F1C2AF"/>
<path transform="translate(1507,435)" d="m0 0h1l-1 16-3 19-4 11-3 3-5 1h-8l-6-1v-2h14l4-2 5-13 3-12 2-16z" fill="#F0C6B2"/>
<path transform="translate(121,90)" d="m0 0h5l1 5-6 9-5 1-3-4 1-6 4-4z" fill="#1E2247"/>
<path transform="translate(1142,275)" d="m0 0 6 1 5 2 4-1 2 2-1 5-2 3-5-1-16-9 4-1z" fill="#C51514"/>
<path transform="translate(114,168)" d="m0 0h3l3 4 1-4h2l1 8 1-2h2l1-6 5 1 3 10-4-1v-2l-6 3-5-1-4-4-1 5h-2z" fill="#4C8EC7"/>
<path transform="translate(141,142)" d="m0 0h2v7l-1 2 14 1v1h-21l-7 1 1-5 2-4 3-2z" fill="#1C2249"/>
<path transform="translate(136,90)" d="m0 0h6l6 5 1 7-3 3-4-1-6-7z" fill="#20254A"/>
<path transform="translate(1278,427)" d="m0 0 19 9 7 3h13l-3 3h-13l-22-9-2-1z" fill="#CDC9CB"/>
<path transform="translate(1259,338)" d="m0 0h6l7 20 6 9 6 4v2l-5-1-7-7-11-21z" fill="#C6C4C8"/>
<path transform="translate(895,650)" d="m0 0 2 1 3 8 2 4 6 1 5-1 5 5v2h-13l-4-2-4-8-4-6z" fill="#191E46"/>
<path transform="translate(572,538)" d="m0 0h5l1 4v15l-4-1-3 19h-1v-10z" fill="#164F97"/>
<path transform="translate(1382,385)" d="m0 0h10l1 1v9l-3 2h-6l-2-1-1-9z" fill="#FDB729"/>
<path transform="translate(319,260)" d="m0 0h6l4 3-1 7-5 3-6-3-1-7z" fill="#FDB62A"/>
<path transform="translate(1197,648)" d="m0 0h6l3 4-1 6-2 2h-7l-3-3 1-7z" fill="#FCB62C"/>
<path transform="translate(1368,626)" d="m0 0m-9 1h54v4l-3-1h2v-2l-54 2-21 1v2h10v1h-11l1-5 4-1z" fill="#D9D1D1"/>
<path transform="translate(783,539)" d="m0 0h7l3 2v8l-4 3-5-1-3-4 1-7z" fill="#FDB62B"/>
<path transform="translate(519,339)" d="m0 0h6l4 4-2 6-2 2h-7l-2-3v-7z" fill="#FEB824"/>
<path transform="translate(295,641)" d="m0 0h6l4 4-1 5-4 3-7-1-1-1v-7z" fill="#FDB727"/>
<path transform="translate(1149,365)" d="m0 0h6l4 3-1 6-3 3h-6l-3-3 1-7z" fill="#FDB729"/>
<path transform="translate(1278,259)" d="m0 0 2 2-2 13-4 15h-20v-1h13v-6l1-2 5-1z" fill="#E9A48B"/>
<path transform="translate(902,650)" d="m0 0 4 2 6 10-4 3-6-2-5-8 1-4z" fill="#EAA288"/>
<path transform="translate(107,448)" d="m0 0 6 1 1 2v6l-4 3v12h-4v-9h2l-2-5-1-1v-6z" fill="#EDEEF0"/>
<path transform="translate(854,241)" d="m0 0 34 1v1h-30v31l-1 12h-1l-1-34z" fill="#A92D22"/>
<path transform="translate(1475,510)" d="m0 0h1l1 41 2 30 1 3h3l2 6v6h-2l-1-3v-8h-4l-2-4-1-28z" fill="#F1C4B2"/>
<path transform="translate(866,276)" d="m0 0h45v1l-19 1 27 1v1h-53l-1 4v-5h19v-2h-18z" fill="#EEB69F"/>
<path transform="translate(748,292)" d="m0 0 7 1 2 2-1 7-3 2-6-1-2-2v-6z" fill="#FDB62A"/>
<path transform="translate(1309,622)" d="m0 0 4 1v2l4 1h3l3 1-1 6-3 2h-13v-3l6 1-1-7-2-1z" fill="#D7987B"/>
<path transform="translate(1312,494)" d="m0 0h7l5 1v4h-2v16h-1v-8l-4 1-5 4-4-6-2-2h4l1 2h4l3-6v-3h-6z" fill="#AB3727"/>
<path transform="translate(104,167)" d="m0 0h5l3 3v6l-3 3h-5l-3-3v-7z" fill="#5E99CF"/>
<path transform="translate(884,254)" d="m0 0h5l3 4 2-3 6 2 1 8h-11l-1-7h-2v-3l-4 2z" fill="#AB1E1D"/>
<path transform="translate(580,388)" d="m0 0 4 2 2 3-7 13-3-4-3-6 5-5z" fill="#F4DED2"/>
<path transform="translate(269,327)" d="m0 0 4 2 6 1-4 14h-4v-2l-3 1z" fill="#EBA289"/>
<path transform="translate(572,398)" d="m0 0 4 2 2 3v10l-4 2-2 3v-7l-5-6 3-2z" fill="#992725"/>
<path transform="translate(270,570)" d="m0 0 4 2 6 4 2 4v3l-14-3v-7z" fill="#AC2522"/>
<path transform="translate(475,477)" d="m0 0h13l8 4 5 4 1 4-4-1-7-4-16-5z" fill="#F8E4DC"/>
<path transform="translate(303,413)" d="m0 0 13 1 7 3 3 4-1 2 4 2-1 2-8-7-4-3-3-1h-8l-5 1h-16v-1z" fill="#F6E6DD"/>
<path transform="translate(176,168)" d="m0 0h3l1 7h2l1-7 5 1 3 9h-3l-6-2v3h-5l-1-1z" fill="#4F91C9"/>
<path transform="translate(141,168)" d="m0 0h4l2 3 2-3h4v11h-3l-1-4-1 3h-7z" fill="#6098CB"/>
<path transform="translate(87,168)" d="m0 0h4l2 4 2-4h4v11h-3l-1-3-1 2h-2l-1-3-1 4h-3z" fill="#5895CC"/>
<path transform="translate(802,638)" d="m0 0 2 1-1 6-2 6v6l3 3 3 1 1-2v10l-2 1-2-1-3-6-3-3v-9l2-8z" fill="#191E46"/>
<path transform="translate(240,413)" d="m0 0 2 3v10l3 5 3 9 3 3 4 2-2 2-10-6-3-8z" fill="#B9C2CE"/>
<path transform="translate(48,144)" d="m0 0 4 2v88l-3 1v-89z" fill="#2D7EC0"/>
<path transform="translate(1457,700)" d="m0 0m-1 1m-1 1m-1 1m-1 1m-1 1m-1 1m-1 1m-1 1m-1 1m-1 1m-1 1m-1 1m-1 1m-1 1m-1 1m-4 1 2 3-20 20-8 6 2-4 22-22z" fill="#2B74B8"/>
<path transform="translate(328,569)" d="m0 0 8 2 6 4 1 3h-15z" fill="#AF2E28"/>
<path transform="translate(1302,572)" d="m0 0h20l-3 2h-14v17l-1 2 2 1h-3l-1-2z" fill="#A92B21"/>
<path transform="translate(1387,505)" d="m0 0h10v1l-7 1-1 1h-55v-1z" fill="#D3B8B2"/>
<path transform="translate(111,77)" d="m0 0 6 1 1 1v6l-6 3-4-1-1-6z" fill="#171C43"/>
<path transform="translate(148,77)" d="m0 0 5 1 2 2v6l-2 2-5-1-4-3 1-6z" fill="#181D44"/>
<path transform="translate(329,561)" d="m0 0 4 1 4 3 3 1 1 6-3 1-10-4v-7z" fill="#EDC2B3"/>
<path transform="translate(572,457)" d="m0 0 5 2 6 4-2 7-3 1-4-3-2-4z" fill="#C41514"/>
<path transform="translate(1586,563)" d="m0 0h1v5l-4 2-24 24-2-1 12-13 5-6 8-7z" fill="#1B5AA1"/>
<path transform="translate(1486,603)" d="m0 0h1l4 21 2 18v14l4-1-4 4-2-3-2-28-3-19z" fill="#F0C6B2"/>
<path transform="translate(1583,818)" d="m0 0h1v13l-1 1h-50v-1l40-1 8-2z" fill="#195EA5"/>
<path transform="translate(180,637)" d="m0 0 3 1 4 7-2 4-6 9h-2l3-9 1-4-1-3h-2l1-4z" fill="#E3DBD9"/>
<path transform="translate(908,487)" d="m0 0h5v12l-1 5h-5z" fill="#181D45"/>
<path transform="translate(1320,531)" d="m0 0 5 1-2 13-1 5h-1l-1-7-5 5-2 1 1-5 4-5 1-7z" fill="#A82420"/>
<path transform="translate(911,269)" d="m0 0h9v15h-1v-5h-27l-1-2 28-1v-6h-8z" fill="#F7DFD2"/>
<path transform="translate(1091,244)" d="m0 0 4 4 2 4-2 4-11-6-1-3 3-2z" fill="#C51614"/>
<path transform="translate(166,168)" d="m0 0h7l1 1v7l-2 2h-6l-1-1v-8z" fill="#3784C4"/>
<path transform="translate(1354,302)" d="m0 0 4 2 3 5-1 8-5 6-8 4-3-1h2v-2l6-2v-2l4-4 2-4z" fill="#0A102D"/>
<path transform="translate(174,503)" d="m0 0h1l1 11-4 16-4 10-2-4 5-14z" fill="#E6D8D5"/>
<path transform="translate(160,374)" d="m0 0h1v9l-4 11-6 4h-7l-1-2 8-1 4-5 3-12h2z" fill="#EEBDA8"/>
<path transform="translate(1302,614)" d="m0 0h20l-3 2h-14v17l-2 3-1-2z" fill="#AA1F1E"/>
<path transform="translate(881,464)" d="m0 0 1 4-11 8h-7l-5-3v-1h11z" fill="#080F29"/>
<path transform="translate(1127,266)" d="m0 0 6 2 11 6-3 3-8-2-5-5z" fill="#AA1A1D"/>
<path transform="translate(155,168)" d="m0 0h8v6h-6v2h6l-1 3h-6l-1-1z" fill="#498ECA"/>
<path transform="translate(112,657)" d="m0 0 5 1v6l-4 1-10-2-1-3 9-2z" fill="#6BA0D1"/>
<path transform="translate(1316,240)" d="m0 0 2 1-5 4-9 1-2 7-2-4-3-3 1-4h13z" fill="#F9E4D8"/>
<path transform="translate(564,357)" d="m0 0 1 2-1 2 2 1v2l1 3-4 3-5 2-1-4 3-6z" fill="#D88B6E"/>
<path transform="translate(480,446)" d="m0 0 4 4 1 4v8l-4 9-3-2 3-6v-9l-2-7z" fill="#B02721"/>
<path transform="translate(577,369)" d="m0 0 2 1-1 2h-3l1 2h3l3-3-1 5-3 3-7-1-3-4 5-3z" fill="#F4D5C5"/>
<path transform="translate(1274,157)" d="m0 0 4 2 5 5 1 5v7l-3 2v-3l-1-5-1-6-3-2-3 1-1-4z" fill="#F3DACD"/>
<path transform="translate(122,326)" d="m0 0 4 1 2 11-10-1 2-8z" fill="#AB201E"/>
<path transform="translate(104,324)" d="m0 0 3 1 1 2 2-1 1 10h-8z" fill="#AA1E1E"/>
<path transform="translate(471,484)" d="m0 0 1 2-4 13-1 5-2 1-2-2 2-11 4-7z" fill="#F5D6CA"/>
<path transform="translate(325,421)" d="m0 0 5 2 11 11 4 3-1 2-7-4-8-7-2-4-2-1z" fill="#F3F0EF"/>
<path transform="translate(1274,335)" d="m0 0 4 2 3 8v3l-6-1-3-8v-3z" fill="#E59C80"/>
<path transform="translate(136,326)" d="m0 0 4 2 2-1 2 10h-9z" fill="#AA1C1D"/>
<path transform="translate(902,255)" d="m0 0h7l1 11h-5l-3-8z" fill="#AD2C26"/>
<path transform="translate(135,152)" d="m0 0 24 1 1 2h-33l3-2z" fill="#0B112F"/>
<path transform="translate(136,293)" d="m0 0h6l1 7-2 2h-5l-2-5z" fill="#B3312B"/>
<path transform="translate(1365,546)" d="m0 0h13v1l-29 2-4 1h-9v-3z" fill="#EBA187"/>
<path transform="translate(978,447)" d="m0 0h2l-1 4h-2l-2 6h2l-1 4h-3l-3-6 2-4z" fill="#ECC3B0"/>
<path transform="translate(566,371)" d="m0 0h4l-1 4 4 3 3 2-6 1-6-2-2-4z" fill="#E59981"/>
<path transform="translate(289,431)" d="m0 0h5v4l10 2 8 2v1h-13l-7-2-1-5-3-1z" fill="#F2DBD1"/>
<path transform="translate(891,399)" d="m0 0 3 1 6 8-1 9-3 1-1-9-2-5z" fill="#080E29"/>
<path transform="translate(267,314)" d="m0 0 4 2 2 3v4h2l-1-5h2l1 5-4 2-6-3-1-7z" fill="#DE9B7D"/>
<path transform="translate(1323,631)" d="m0 0h2v5l-1 1h-21l2-4 1 1h13z" fill="#B27044"/>
<path transform="translate(1393,511)" d="m0 0h14v1h-7v2h-42v-1l35-1z" fill="#D4B7AF"/>
<path transform="translate(105,293)" d="m0 0h5l1 1v6l-3 2-4-1-1-1v-5z" fill="#B4191A"/>
<path transform="translate(1548,602)" d="m0 0 1 3-22 22v-3l7-7 7-8z" fill="#1758A0"/>
<path transform="translate(901,410)" d="m0 0 3 1 4 7 3 6-5-1-6-8z" fill="#F3D5C7"/>
<path transform="translate(1151,363)" d="m0 0 7 2 3 4-1 6-5 4-6-1v-1l8-1 1-8-3-2h-6l-3 7h-1l1-7z" fill="#F9E4D8"/>
<path transform="translate(122,289)" d="m0 0 5 1 1 1-1 7h-4l-2-2v-3h-2l1-3z" fill="#AB2120"/>
<path transform="translate(483,475)" d="m0 0 9 1 6 3 5 6-2 2v-2l-4-2-6-4-8-1-4-1z" fill="#B2241D"/>
<path transform="translate(869,255)" d="m0 0h4l3 6v2h2v2h-3v-2h-2v2h-4z" fill="#B32221"/>
<path transform="translate(1483,596)" d="m0 0h3l2 19 1 13-2-2-4-27z" fill="#F8E0D4"/>
<path transform="translate(1320,542)" d="m0 0h1v8l-1 2-9 1 6-9z" fill="#F5D8CC"/>
<path transform="translate(448,469)" d="m0 0 16 8 5 3-1 2-18-7-3-5z" fill="#AF2420"/>
<path transform="translate(1155,200)" d="m0 0 17 8 13 7v2l-6-2-23-12z" fill="#C11D17"/>
<path transform="translate(1290,151)" d="m0 0 4 1 5 9v7l-2 3h-3l1-9-1-5-4-4z" fill="#080F2A"/>
<path transform="translate(1321,583)" d="m0 0h2l-1 7-2 2h-14v-1l8-1 5-5z" fill="#EED5CC"/>
<path transform="translate(271,552)" d="m0 0h15v1l-8 1-2 7-2 1v-4h-2z" fill="#F5D6C7"/>
<path transform="translate(911,270)" d="m0 0h8l-1 5h-14l2-2 2 1-1-3z" fill="#A7542D"/>
<path transform="translate(1285,417)" d="m0 0 10 4 4 4-9-1-6-3z" fill="#E29C80"/>
<path transform="translate(338,381)" d="m0 0 5 2 6 4-2 5-2-1-1-5-7-1-1 4-3 1 2-5z" fill="#0A102C"/>
<path transform="translate(1300,298)" d="m0 0 5 1 9 6v4l-6-3-8-7z" fill="#E7E6E7"/>
<path transform="translate(264,310)" d="m0 0 4 1 10 6 1 2-3 1v-2h-2l1 5h-2l-3-7-4-1z" fill="#F3CEBD"/>
<path transform="translate(527,429)" d="m0 0 3 2h-3l-1 8 3 5-6-2-2-1 3-11z" fill="#ACBDD0"/>
<path transform="translate(927,274)" d="m0 0h1l1 24 1 3-3 6-2 1v-3h2v-2l-2-1 1-5z" fill="#A96234"/>
<path transform="translate(1304,269)" d="m0 0h5v9h-3v-6l1-2h-2v8l-3 1v-8z" fill="#D8C8C2"/>
<path transform="translate(149,168)" d="m0 0h4v11h-3l-1-4-1 2h-2z" fill="#4D90CA"/>
<path transform="translate(1167,216)" d="m0 0h6v2l7 2v2l3 1-2 2-13-6z" fill="#DEAE9E"/>
<path transform="translate(155,372)" d="m0 0 4 3v2h-6l-2 5-3 1v-8z" fill="#EEBEA8"/>
<path transform="translate(1398,281)" d="m0 0 2 1-2 4-1 5-4 3h-2l-2-3v-9h1l1 8 4 1-1-6z" fill="#F9E4D8"/>
<path transform="translate(982,447)" d="m0 0h7l1 1v5l-3 3-4-1 2-5h-2z" fill="#EFC8B7"/>
<path transform="translate(1320,507)" d="m0 0h1v10h-16l-1-2 13-1 2-1z" fill="#AA1D1D"/>
<path transform="translate(462,473)" d="m0 0 6 2 5 3-2 4-10-5z" fill="#F2C9B7"/>
<path transform="translate(276,567)" d="m0 0 4 4 3 1v2l-6 1-7-5v-2l6 1z" fill="#EABFB0"/>
<path transform="translate(475,477)" d="m0 0h13l2 5-2 1-13-4z" fill="#F4D0C0"/>
<path transform="translate(107,458)" d="m0 0 4 1-1 4v9h-4v-9h2z" fill="#E8D0C4"/>
<path transform="translate(796,618)" d="m0 0 2 1-5 7 2 6-5-2-2-5z" fill="#F5F6F7"/>
<path transform="translate(561,352)" d="m0 0 3 3-1 4-4 7-2 3-2-1 4-10z" fill="#F3CDBB"/>
<path transform="translate(121,112)" d="m0 0h20l-2 2-4 1h-8l-6-2z" fill="#1968B1"/>
<path transform="translate(226,45)" d="m0 0h6l-6 7-3 2v-2h-2l1-3 2-2z" fill="#2D7CBF"/>
<path transform="translate(1354,441)" d="m0 0h7v6h-7z" fill="#FDFDFD"/>
<path transform="translate(748,290)" d="m0 0h6l4 4v6h-1l-2-6-7-1-2 2-1 6h-1v-8z" fill="#F9E4D8"/>
<path transform="translate(1112,244)" d="m0 0 2 3-2 5-2 4-5-2 2-4 4-4z" fill="#DBCEC8"/>
<path transform="translate(1276,181)" d="m0 0h5l-1 6 1 2-6 3v-4h2z" fill="#F0C6B2"/>
<path transform="translate(467,484)" d="m0 0 4 1h-2l-4 10-1 8h-1v-13z" fill="#B8201A"/>
<path transform="translate(1329,288)" d="m0 0 14 7-4 1-9-2h-1z" fill="#080F29"/>
<path transform="translate(1285,346)" d="m0 0 3 1-2 1-3 13-2-4 1-9z" fill="#164C95"/>
<path transform="translate(176,168)" d="m0 0h3l1 7 2 4h-5l-1-1z" fill="#649DD1"/>
<path transform="translate(1491,642)" d="m0 0h2v14l4-1-4 4-2-3z" fill="#EBC6B4"/>
<path transform="translate(897,271)" d="m0 0 2 3 19 1 1-3v4h-25z" fill="#E79D82"/>
<path transform="translate(131,168)" d="m0 0 2 1 3 10-4-1-1-3-2-1 1-5z" fill="#659FD1"/>
<path transform="translate(1320,626)" d="m0 0 3 1-1 6-9 1 1-2 3-1 1-2h2z" fill="#F7EBE6"/>
<path transform="translate(869,409)" d="m0 0h2l-2 4-3 3-6 4-3-1 5-4z" fill="#0B112E"/>
<path transform="translate(356,426)" d="m0 0 1 3-6 7h-2l-1 3-3-1 7-7z" fill="#C7C4C7"/>
<path transform="translate(374,403)" d="m0 0h3l-1 4-4 5h-2l-3 2 2-4z" fill="#DBE0E6"/>
<path transform="translate(101,171)" d="m0 0 3 4h5l2-4v6l-2 2h-5l-3-3z" fill="#478BC7"/>
<path transform="translate(166,170)" d="m0 0h6v5l-1 1h-5z" fill="#F8F8F8"/>
<path transform="translate(47,145)" d="m0 0 3 1v10l-3 2z" fill="#E7E9EC"/>
<path transform="translate(1304,591)" d="m0 0 15 1-3 2-5 1h-7z" fill="#A56230"/>
<path transform="translate(1278,427)" d="m0 0 9 4v2h-8l-2-1z" fill="#C0BFC5"/>
<path transform="translate(1265,189)" d="m0 0 5 2 2 5-9-3-3-2z" fill="#F8E1D4"/>
<path transform="translate(104,170)" d="m0 0h5v6h-5l-1-5z" fill="#FDFDFD"/>
<path transform="translate(563,369)" d="m0 0h5v2l-5 4h-3l-1-4z" fill="#EEB8A2"/>
<path transform="translate(881,253)" d="m0 0h11l7 2-3 1h-2l-3 3-2-4h-7z" fill="#F2C8B5"/>
<path transform="translate(181,647)" d="m0 0 4 2-6 9h-2l3-9z" fill="#93B3D5"/>
<path transform="translate(562,640)" d="m0 0h1v14l-3 1 1-13z" fill="#B3C5DA"/>
<path transform="translate(581,371)" d="m0 0 1 4-4 4h-5l2-5h4z" fill="#EFBFA9"/>
<path transform="translate(1326,334)" d="m0 0h1l-1 13-2 3-2-1 3-12z" fill="#154C96"/>
<path transform="translate(112,657)" d="m0 0 5 1v6l-4 1-2-2h2z" fill="#7DAAD9"/>
<path transform="translate(1312,581)" d="m0 0h2l1 4 4-1-2 4-4 1-1-2z" fill="#A55F2F"/>
<path transform="translate(466,494)" d="m0 0h1l1 9-3 2-2-2 1-8z" fill="#F6DBD2"/>
<path transform="translate(447,455)" d="m0 0 3 1-1 3-9 3 1-4z" fill="#B2181A"/>
<path transform="translate(468,464)" d="m0 0 2 1-8 8-3-4z" fill="#AA231F"/>
<path transform="translate(141,295)" d="m0 0h2v5l-2 2h-5l-1-4h5z" fill="#C41514"/>
<path transform="translate(128,168)" d="m0 0 3 1-2 5 3 1-4 3-3-1z" fill="#3E87C4"/>
<path transform="translate(174,503)" d="m0 0h1l1 11-2 5h-1v-10z" fill="#DFD7D7"/>
<path transform="translate(289,431)" d="m0 0h5v4l5 2v1h-7l-1-5-3-1z" fill="#F9EEE7"/>
<path transform="translate(564,357)" d="m0 0 1 2-1 2 2 1-2 4-4-1 1-4z" fill="#AA4129"/>
<path transform="translate(265,311)" d="m0 0h1l1 10-2 2-2-4v-6z" fill="#F5D8CD"/>
<path transform="translate(1172,290)" d="m0 0 3 4v3l-6 1 1-5z" fill="#CCC7C7"/>
<path transform="translate(51,153)" d="m0 0h1l2 14-2 5h-1z" fill="#195EA5"/>
<path transform="translate(1323,584)" d="m0 0h1v10h-8l5-4z" fill="#A93123"/>
<path transform="translate(152,369)" d="m0 0h5l3 3v6l-2-1-2-4z" fill="#F7DCCE"/>
<path transform="translate(1354,302)" d="m0 0 4 2 2 2v7l-2-1z" fill="#060D26"/>
<path transform="translate(901,271)" d="m0 0h6l1 3-9 1v-3z" fill="#BE754E"/>
<path transform="translate(1299,507)" d="m0 0 3 4 3 6h-6z" fill="#A56230"/>
<path transform="translate(1099,264)" d="m0 0 6 2v3l-3 1-4-2z" fill="#C9C7C8"/>
<path transform="translate(332,444)" d="m0 0h5l-1 7v5l-2-3z" fill="#173873"/>
<path transform="translate(894,421)" d="m0 0 1 3-5 9-1-4 3-6h2z" fill="#060D26"/>
<path transform="translate(1138,198)" d="m0 0 6 2-1 3-6-1-1-3z" fill="#CAC7C8"/>
<path transform="translate(162,168)" d="m0 0h1v6h-6v-5z" fill="#9BBBDC"/>
<path transform="translate(1282,168)" d="m0 0 2 1v7l-3 2v-3l-1-5z" fill="#F0C6B2"/>
<path transform="translate(95,168)" d="m0 0h4v10h-2l-1-6z" fill="#287DC0"/>
<path transform="translate(130,148)" d="m0 0 4 2v3l-6 1 1-5z" fill="#EEE5E3"/>
</svg>
